{"title":"Death Note Complete Series (EngDub) 720p x265 Download","magnet":"magnet:?xt=urn:btih:ed6a1797ffba4c2d14c46ecc16781ec3ade48031&dn=Death+Note+Complete+Series+%28EngDub%29+720p+x265+Download&tr=udp%3A%2F%2Ftracker.leechers-paradise.org%3A6969&tr=udp%3A%2F%2Fzer0day.ch%3A1337&tr=udp%3A%2F%2Fopen.demonii.com%3A1337&tr=udp%3A%2F%2Ftracker.coppersurfer.tk%3A6969&tr=udp%3A%2F%2Fexodus.desync.com%3A6969","uploader":"digimaza","categoryP":"video","categoryS":"hd___tv_shows","size":"5388482665","seeders":"1","leechers":"1","description":"Death Note Complete Series (EngDub) 720p x265 Download <a href=\"\nhttps://s3.postimg.org/6mye80oz7/death-note-digimaza.jpg\" rel=\"nofollow\" target=\"_NEW\">\nhttps://s3.postimg.org/6mye80oz7/death-note-digimaza.jpg</a>\r\n\r\nLight Yagami is an ace student with great prospects&#x2014;and he&#x2019;s bored out of his mind. But all that changes when he finds the Death Note, a notebook dropped by a rogue Shinigami death god. Any human whose name is written in the notebook dies, and Light has vowed to use the power of the Death Note to rid the world of evil. But will Light succeed in his noble goal, or will the Death Note turn him into the very thing he fights against?\r\n..::File Specs::.. \r\nGeneral \r\n\r\nFormat version : Version 4 / Version 2 \r\nDuration : 23 min 0 s \r\nOverall bit rate : 805 kb/s \r\n\r\nVideo \r\n\r\nFormat : HEVC \r\nFormat/Info : High Efficiency Video Coding \r\nFormat profile : Main <a class=\"__cf_email__\" href=\"/cdn-cgi/l/email-protection\" data-cfemail=\"95a4a5d5d9a6bba4\">[email&#xA0;protected]</a><script data-cfhash=\"f9e31\" type=\"text/javascript\">/* <![CDATA[ */!function(t,e,r,n,c,a,p){try{t=document.currentScript||function(){for(t=document.getElementsByTagName('script'),e=t.length;e--;)if(t[e].getAttribute('data-cfhash'))return t[e]}();if(t&&(c=t.previousSibling)){p=t.parentNode;if(a=c.getAttribute('data-cfemail')){for(e='',r='0x'+a.substr(0,2)|0,n=2;a.length-n;n+=2)e+='%'+('0'+('0x'+a.substr(n,2)^r).toString(16)).slice(-2);p.replaceChild(document.createTextNode(decodeURIComponent(e)),c)}p.removeChild(t)}}catch(u){}}()/* ]]> */</script>@Main \r\nCodec ID : V_MPEGH/ISO/HEVC \r\nDuration : 22 min 59 s \r\nBit rate : 713 kb/s \r\nWidth : 1 280 pixels \r\nHeight : 720 pixels \r\nDisplay aspect ratio : 16:9 \r\nFrame rate mode : Constant \r\nFrame rate : 23.976 (24000/1001) FPS \r\nColor space : YUV \r\nChroma subsampling : 4:2:0 \r\nBit depth : 10 bits \r\nBits/(Pixel*Frame) : 0.032 \r\nStream size : 117 MiB (89%) \r\nDefault : Yes \r\nForced : No \r\n\r\nAudio \r\nID : 2 \r\nFormat : AAC \r\nFormat/Info : Advanced Audio Codec \r\nFormat profile : LC \r\nCodec ID : A_AAC \r\nDuration : 23 min 0 s \r\nBit rate : 89.6 kb/s \r\nChannel(s) : 2 channels \r\nChannel positions : Front: L R \r\nSampling rate : 48.0 kHz \r\nFrame rate : 46.875 FPS (1024 spf) \r\nCompression mode : Lossy \r\nDelay relative to video : 9 ms \r\nStream size : 14.7 MiB (11%) \r\nLanguage : English \r\n\r\nText #1 \r\n\r\nFormat : ASS \r\nCodec ID : S_TEXT/ASS \r\nCodec ID/Info : Advanced Sub Station Alpha \r\nDuration : 22 min 50 s \r\nBit rate : 192 b/s \r\nCount of elements : 509 \r\nCompression mode : Lossless \r\nLanguage : English \r\n\r\n..::ScreenShots::.. \r\n <a href=\"\nhttps://s10.postimg.org/6215duml5/vlcsnap-2017-06-18-00h16m24s068.png\" rel=\"nofollow\" target=\"_NEW\">\nhttps://s10.postimg.org/6215duml5/vlcsnap-2017-06-18-00h16m24s068.png</a>  <a href=\"\nhttps://s10.postimg.org/3lzc004ih/vlcsnap-2017-06-18-00h16m34s566.png\" rel=\"nofollow\" target=\"_NEW\">\nhttps://s10.postimg.org/3lzc004ih/vlcsnap-2017-06-18-00h16m34s566.png</a>  <a href=\"\nhttps://s10.postimg.org/greu63ye1/vlcsnap-2017-06-18-00h17m26s156.png\" rel=\"nofollow\" target=\"_NEW\">\nhttps://s10.postimg.org/greu63ye1/vlcsnap-2017-06-18-00h17m26s156.png</a> \r\n\r\n================================================================ \r\nSeed Seed Seed Seed Seed Seed Seed Seed Seed Seed Seed Seed Seed \r\nTo direct download or Watch Online this file, Visit. \r\r\nSeed Seed Seed Seed Seed Seed Seed Seed Seed Seed Seed Seed Seed \r\n================================================================","last_updated":"2017-06-18T12:01:41.374Z","parsed":{"xt":"urn:btih:ed6a1797ffba4c2d14c46ecc16781ec3ade48031","dn":"Death Note Complete Series (EngDub) 720p x265 Download","tr":["udp://exodus.desync.com:6969","udp://open.demonii.com:1337","udp://tracker.coppersurfer.tk:6969","udp://tracker.leechers-paradise.org:6969","udp://zer0day.ch:1337"],"infoHash":"ed6a1797ffba4c2d14c46ecc16781ec3ade48031","infoHashBuffer":{"type":"Buffer","data":[237,106,23,151,255,186,76,45,20,196,110,204,22,120,30,195,173,228,128,49]},"name":"Death Note Complete Series (EngDub) 720p x265 Download","announce":["udp://exodus.desync.com:6969","udp://open.demonii.com:1337","udp://tracker.coppersurfer.tk:6969","udp://tracker.leechers-paradise.org:6969","udp://zer0day.ch:1337"],"urlList":[]}}